<svg width="508" height="132" viewBox="0 0 508 132" fill="none" xmlns="http://www.w3.org/2000/svg">
<path d="M122.96 1H1V123.155H122.96V1Z" fill="#FFFCF7" stroke="#171717" stroke-width="2"/>
<path d="M35.6477 1H1V35.7032H35.6477V1Z" stroke="#171717" stroke-width="2"/>
<path d="M64.7518 1H35.6477V35.7032H64.7518V1Z" stroke="#171717" stroke-width="2"/>
<path d="M122.96 1H64.7518V45.4201H122.96V1Z" fill="#0047D6" stroke="#171717" stroke-width="2"/>
<path d="M42.5772 35.7032H1V73.1826H42.5772V35.7032Z" stroke="#171717" stroke-width="2"/>
<path d="M64.7518 35.7032H42.5772V73.1826H64.7518V35.7032Z" stroke="#171717" stroke-width="2"/>
<path d="M98.0135 45.4201H64.7518V73.1826H98.0135V45.4201Z" stroke="#171717" stroke-width="2"/>
<path d="M122.96 45.4201H98.0135V73.1826H122.96V45.4201Z" stroke="#171717" stroke-width="2"/>
<path d="M28.7182 73.1826H1V123.155H28.7182V73.1826Z" stroke="#171717" stroke-width="2"/>
<path d="M75.839 73.1826H28.7182V123.155H75.839V73.1826Z" stroke="#171717" stroke-width="2"/>
<path d="M122.96 73.1826H75.839V123.155H122.96V73.1826Z" stroke="#171717" stroke-width="2"/>
<path d="M154.144 42.4652H162.13V44.6432L165.694 42.4652H169.522L172.294 46.5572L179.026 42.4652H182.722L188.662 51.2432V78.8312H180.676V52.6952L178.828 49.8572H176.65L175.462 51.2432V60.5492H167.476V52.6952L165.562 49.8572H163.318L162.13 51.2432V78.8312H154.144V42.4652ZM200.252 42.3332H222.296L226.916 49.1312V78.8312H218.93V76.6532L215.3 78.8312H200.912L194.972 69.9872V66.4892L205.598 55.4012H218.93V49.6592H200.252V42.3332ZM203.222 68.5352L204.476 71.3732H218.666V62.9252H208.568L203.222 68.4032V68.5352ZM235.866 29.4632H245.7L251.97 33.1592V68.6012L253.884 71.4392H265.104V78.8312H249.99L244.05 70.0532V36.8552H235.866V29.4632ZM275.44 29.4632H285.274L291.544 33.1592V68.6012L293.458 71.4392H304.678V78.8312H289.564L283.624 70.0532V36.8552H275.44V29.4632ZM319.899 42.4652H339.765L345.705 51.3092V72.5612L339.633 78.8312H319.833L313.827 69.9872V48.7352L319.899 42.4652ZM321.747 68.5352L323.661 71.3732H336.465L337.653 70.1192V52.6952L335.739 49.8572H323.001L321.747 51.2432V68.5352ZM359.539 42.3332H379.339L384.817 50.4512L379.669 55.7972L375.709 49.9892H363.103L361.651 51.5072V68.9972L363.697 72.0332H376.369L380.857 67.4792L384.685 73.2212L379.273 78.8312H359.473L353.665 70.1852V48.4052L359.539 42.3332Z" fill="#171717"/>
<path d="M159.526 94.839C159.457 94.2543 159.176 93.8003 158.684 93.4772C158.191 93.154 157.588 92.9924 156.872 92.9924C156.349 92.9924 155.891 93.0771 155.499 93.2463C155.11 93.4156 154.806 93.6484 154.587 93.9446C154.371 94.2408 154.264 94.5774 154.264 94.9544C154.264 95.2699 154.339 95.5411 154.489 95.7681C154.643 95.9912 154.839 96.1778 155.077 96.3278C155.316 96.474 155.566 96.5952 155.827 96.6914C156.089 96.7837 156.33 96.8587 156.549 96.9164L157.749 97.2396C158.057 97.3204 158.399 97.4319 158.776 97.5743C159.157 97.7166 159.521 97.9109 159.867 98.1571C160.217 98.3995 160.506 98.7111 160.732 99.092C160.959 99.4728 161.073 99.9402 161.073 100.494C161.073 101.133 160.906 101.71 160.571 102.225C160.24 102.741 159.755 103.151 159.117 103.455C158.482 103.758 157.711 103.91 156.803 103.91C155.956 103.91 155.223 103.774 154.604 103.501C153.989 103.228 153.504 102.847 153.15 102.358C152.8 101.87 152.602 101.302 152.556 100.656H154.033C154.071 101.102 154.221 101.471 154.483 101.764C154.748 102.052 155.083 102.268 155.487 102.41C155.895 102.549 156.333 102.618 156.803 102.618C157.349 102.618 157.839 102.529 158.274 102.352C158.709 102.172 159.053 101.921 159.307 101.602C159.561 101.279 159.688 100.902 159.688 100.471C159.688 100.079 159.578 99.7594 159.359 99.5132C159.14 99.267 158.851 99.0669 158.493 98.9131C158.136 98.7592 157.749 98.6245 157.334 98.5091L155.879 98.0936C154.956 97.8282 154.225 97.4493 153.687 96.9568C153.148 96.4644 152.879 95.82 152.879 95.0237C152.879 94.362 153.058 93.7849 153.415 93.2925C153.777 92.7962 154.262 92.4115 154.87 92.1384C155.481 91.8614 156.164 91.7229 156.918 91.7229C157.68 91.7229 158.357 91.8595 158.949 92.1326C159.542 92.4019 160.011 92.7712 160.357 93.2406C160.707 93.7099 160.892 94.2427 160.911 94.839H159.526ZM163.241 107.027V94.839H164.557V96.247H164.719C164.819 96.0932 164.957 95.897 165.134 95.6584C165.315 95.4161 165.573 95.2006 165.907 95.0121C166.246 94.8198 166.704 94.7236 167.281 94.7236C168.027 94.7236 168.685 94.9102 169.254 95.2834C169.824 95.6565 170.268 96.1855 170.587 96.8703C170.907 97.5551 171.066 98.3629 171.066 99.2939C171.066 100.233 170.907 101.046 170.587 101.735C170.268 102.42 169.825 102.951 169.26 103.328C168.694 103.701 168.042 103.887 167.304 103.887C166.734 103.887 166.279 103.793 165.936 103.605C165.594 103.412 165.33 103.195 165.146 102.952C164.961 102.706 164.819 102.502 164.719 102.341H164.603V107.027H163.241ZM164.58 99.2708C164.58 99.9402 164.678 100.531 164.874 101.042C165.071 101.55 165.357 101.948 165.734 102.237C166.111 102.522 166.573 102.664 167.119 102.664C167.688 102.664 168.164 102.514 168.544 102.214C168.929 101.91 169.218 101.502 169.41 100.99C169.606 100.475 169.704 99.9018 169.704 99.2708C169.704 98.6476 169.608 98.0859 169.416 97.5858C169.227 97.0819 168.941 96.6837 168.556 96.3913C168.175 96.0951 167.696 95.947 167.119 95.947C166.565 95.947 166.1 96.0874 165.723 96.3682C165.346 96.6452 165.061 97.0338 164.869 97.5339C164.676 98.0302 164.58 98.6091 164.58 99.2708ZM175.752 103.91C175.19 103.91 174.68 103.805 174.223 103.593C173.765 103.378 173.401 103.068 173.132 102.664C172.863 102.256 172.728 101.764 172.728 101.187C172.728 100.679 172.828 100.267 173.028 99.9518C173.228 99.6325 173.496 99.3824 173.83 99.2016C174.165 99.0208 174.534 98.8861 174.938 98.7977C175.346 98.7053 175.756 98.6322 176.167 98.5784C176.706 98.5091 177.143 98.4572 177.477 98.4226C177.816 98.3841 178.062 98.3206 178.216 98.2321C178.374 98.1437 178.453 97.9898 178.453 97.7705V97.7243C178.453 97.155 178.297 96.7125 177.985 96.3971C177.677 96.0816 177.21 95.9239 176.583 95.9239C175.933 95.9239 175.423 96.0662 175.054 96.3509C174.684 96.6356 174.425 96.9395 174.275 97.2627L172.982 96.801C173.213 96.2624 173.521 95.8431 173.905 95.543C174.294 95.2391 174.717 95.0275 175.175 94.9083C175.636 94.7852 176.09 94.7236 176.537 94.7236C176.821 94.7236 177.148 94.7582 177.518 94.8275C177.891 94.8929 178.251 95.0295 178.597 95.2372C178.947 95.4449 179.237 95.7585 179.468 96.1778C179.699 96.5971 179.814 97.1588 179.814 97.8628V103.703H178.453V102.502H178.383C178.291 102.695 178.137 102.901 177.922 103.12C177.706 103.339 177.42 103.526 177.062 103.68C176.704 103.833 176.267 103.91 175.752 103.91ZM175.96 102.687C176.498 102.687 176.952 102.581 177.322 102.37C177.695 102.158 177.976 101.885 178.164 101.55C178.356 101.216 178.453 100.864 178.453 100.494V99.2478C178.395 99.317 178.268 99.3805 178.072 99.4382C177.879 99.492 177.656 99.5401 177.402 99.5825C177.152 99.6209 176.908 99.6555 176.669 99.6863C176.435 99.7133 176.244 99.7363 176.098 99.7556C175.744 99.8017 175.413 99.8768 175.106 99.9806C174.802 100.081 174.555 100.233 174.367 100.437C174.182 100.637 174.09 100.91 174.09 101.256C174.09 101.729 174.265 102.087 174.615 102.329C174.969 102.568 175.417 102.687 175.96 102.687ZM185.901 103.887C185.07 103.887 184.354 103.691 183.754 103.299C183.154 102.906 182.692 102.366 182.369 101.677C182.046 100.989 181.885 100.202 181.885 99.317C181.885 98.4168 182.05 97.6224 182.381 96.9337C182.716 96.2413 183.181 95.7008 183.777 95.3122C184.377 94.9198 185.078 94.7236 185.878 94.7236C186.501 94.7236 187.063 94.839 187.563 95.0698C188.063 95.3007 188.473 95.6238 188.792 96.0393C189.111 96.4548 189.309 96.9395 189.386 97.4935H188.025C187.921 97.0896 187.69 96.7318 187.332 96.4202C186.978 96.1047 186.501 95.947 185.901 95.947C185.37 95.947 184.905 96.0855 184.504 96.3625C184.108 96.6356 183.799 97.0222 183.575 97.5224C183.356 98.0186 183.246 98.6015 183.246 99.2708C183.246 99.9556 183.354 100.552 183.57 101.06C183.789 101.568 184.097 101.962 184.493 102.243C184.893 102.524 185.362 102.664 185.901 102.664C186.255 102.664 186.576 102.602 186.865 102.479C187.153 102.356 187.397 102.179 187.597 101.948C187.798 101.718 187.94 101.441 188.025 101.117H189.386C189.309 101.641 189.119 102.112 188.815 102.531C188.515 102.947 188.117 103.278 187.621 103.524C187.128 103.766 186.555 103.887 185.901 103.887ZM195.093 103.887C194.239 103.887 193.503 103.699 192.883 103.322C192.268 102.941 191.793 102.41 191.458 101.729C191.127 101.044 190.962 100.248 190.962 99.3401C190.962 98.4322 191.127 97.632 191.458 96.9395C191.793 96.2432 192.258 95.7008 192.855 95.3122C193.455 94.9198 194.155 94.7236 194.955 94.7236C195.417 94.7236 195.873 94.8006 196.323 94.9544C196.773 95.1083 197.182 95.3584 197.552 95.7046C197.921 96.047 198.215 96.501 198.435 97.0665C198.654 97.632 198.764 98.3283 198.764 99.1554V99.7325H191.931V98.5553H197.379C197.379 98.0552 197.279 97.6089 197.079 97.2165C196.882 96.8241 196.602 96.5144 196.236 96.2874C195.874 96.0605 195.447 95.947 194.955 95.947C194.413 95.947 193.943 96.0816 193.547 96.3509C193.155 96.6164 192.853 96.9626 192.641 97.3896C192.429 97.8167 192.324 98.2745 192.324 98.763V99.5478C192.324 100.217 192.439 100.785 192.67 101.25C192.905 101.712 193.23 102.064 193.645 102.306C194.061 102.545 194.543 102.664 195.093 102.664C195.451 102.664 195.774 102.614 196.063 102.514C196.355 102.41 196.607 102.256 196.819 102.052C197.03 101.845 197.194 101.587 197.309 101.279L198.625 101.648C198.487 102.095 198.254 102.487 197.927 102.826C197.6 103.16 197.196 103.422 196.715 103.61C196.234 103.795 195.694 103.887 195.093 103.887ZM209.353 94.839V95.9931H204.575V94.839H209.353ZM206.006 103.703V93.6157C206.006 93.1078 206.125 92.6847 206.363 92.3461C206.602 92.0076 206.912 91.7537 207.293 91.5844C207.673 91.4151 208.075 91.3305 208.499 91.3305C208.833 91.3305 209.106 91.3574 209.318 91.4113C209.53 91.4651 209.687 91.5152 209.791 91.5613L209.399 92.7385C209.33 92.7154 209.233 92.6866 209.11 92.652C208.991 92.6173 208.833 92.6 208.637 92.6C208.187 92.6 207.862 92.7135 207.662 92.9405C207.466 93.1675 207.368 93.5002 207.368 93.9388V103.703H206.006ZM214.497 103.887C213.697 103.887 212.995 103.697 212.391 103.316C211.791 102.935 211.321 102.402 210.983 101.718C210.648 101.033 210.481 100.233 210.481 99.317C210.481 98.3937 210.648 97.5878 210.983 96.8991C211.321 96.2105 211.791 95.6758 212.391 95.2949C212.995 94.914 213.697 94.7236 214.497 94.7236C215.297 94.7236 215.997 94.914 216.598 95.2949C217.202 95.6758 217.671 96.2105 218.006 96.8991C218.344 97.5878 218.513 98.3937 218.513 99.317C218.513 100.233 218.344 101.033 218.006 101.718C217.671 102.402 217.202 102.935 216.598 103.316C215.997 103.697 215.297 103.887 214.497 103.887ZM214.497 102.664C215.105 102.664 215.605 102.508 215.997 102.197C216.39 101.885 216.68 101.475 216.869 100.967C217.057 100.46 217.152 99.9095 217.152 99.317C217.152 98.7246 217.057 98.1725 216.869 97.6608C216.68 97.1492 216.39 96.7356 215.997 96.4202C215.605 96.1047 215.105 95.947 214.497 95.947C213.889 95.947 213.389 96.1047 212.997 96.4202C212.604 96.7356 212.314 97.1492 212.125 97.6608C211.937 98.1725 211.843 98.7246 211.843 99.317C211.843 99.9095 211.937 100.46 212.125 100.967C212.314 101.475 212.604 101.885 212.997 102.197C213.389 102.508 213.889 102.664 214.497 102.664ZM220.592 103.703V94.839H221.908V96.1778H222C222.162 95.7392 222.454 95.3834 222.877 95.1102C223.301 94.8371 223.778 94.7005 224.309 94.7005C224.409 94.7005 224.534 94.7025 224.684 94.7063C224.834 94.7101 224.947 94.7159 225.024 94.7236V96.1086C224.978 96.097 224.872 96.0797 224.707 96.0566C224.545 96.0297 224.374 96.0162 224.193 96.0162C223.762 96.0162 223.378 96.1066 223.039 96.2874C222.704 96.4644 222.439 96.7106 222.243 97.0261C222.05 97.3377 221.954 97.6935 221.954 98.0936V103.703H220.592ZM233.217 103.703L230.516 94.839H231.947L233.863 101.625H233.956L235.848 94.839H237.303L239.172 101.602H239.265L241.18 94.839H242.611L239.911 103.703H238.572L236.633 96.8934H236.495L234.556 103.703H233.217ZM245.774 98.3706V103.703H244.412V91.8845H245.774V96.224H245.889C246.097 95.7662 246.409 95.4026 246.824 95.1333C247.243 94.8602 247.801 94.7236 248.497 94.7236C249.101 94.7236 249.63 94.8448 250.084 95.0872C250.538 95.3257 250.89 95.6931 251.14 96.1893C251.394 96.6818 251.521 97.3088 251.521 98.0706V103.703H250.159V98.1629C250.159 97.4589 249.977 96.9145 249.611 96.5298C249.25 96.1413 248.748 95.947 248.105 95.947C247.659 95.947 247.259 96.0412 246.905 96.2297C246.555 96.4182 246.278 96.6933 246.074 97.0549C245.874 97.4166 245.774 97.8551 245.774 98.3706ZM256.621 103.91C256.059 103.91 255.55 103.805 255.092 103.593C254.634 103.378 254.27 103.068 254.001 102.664C253.732 102.256 253.597 101.764 253.597 101.187C253.597 100.679 253.697 100.267 253.897 99.9518C254.097 99.6325 254.365 99.3824 254.699 99.2016C255.034 99.0208 255.403 98.8861 255.807 98.7977C256.215 98.7053 256.625 98.6322 257.037 98.5784C257.575 98.5091 258.012 98.4572 258.346 98.4226C258.685 98.3841 258.931 98.3206 259.085 98.2321C259.243 98.1437 259.322 97.9898 259.322 97.7705V97.7243C259.322 97.155 259.166 96.7125 258.854 96.3971C258.546 96.0816 258.079 95.9239 257.452 95.9239C256.802 95.9239 256.292 96.0662 255.923 96.3509C255.553 96.6356 255.294 96.9395 255.144 97.2627L253.851 96.801C254.082 96.2624 254.39 95.8431 254.774 95.543C255.163 95.2391 255.586 95.0275 256.044 94.9083C256.506 94.7852 256.96 94.7236 257.406 94.7236C257.691 94.7236 258.018 94.7582 258.387 94.8275C258.76 94.8929 259.12 95.0295 259.466 95.2372C259.816 95.4449 260.106 95.7585 260.337 96.1778C260.568 96.5971 260.684 97.1588 260.684 97.8628V103.703H259.322V102.502H259.252C259.16 102.695 259.006 102.901 258.791 103.12C258.575 103.339 258.289 103.526 257.931 103.68C257.573 103.833 257.137 103.91 256.621 103.91ZM256.829 102.687C257.367 102.687 257.821 102.581 258.191 102.37C258.564 102.158 258.845 101.885 259.033 101.55C259.226 101.216 259.322 100.864 259.322 100.494V99.2478C259.264 99.317 259.137 99.3805 258.941 99.4382C258.748 99.492 258.525 99.5401 258.271 99.5825C258.021 99.6209 257.777 99.6555 257.539 99.6863C257.304 99.7133 257.113 99.7363 256.967 99.7556C256.613 99.8017 256.282 99.8768 255.975 99.9806C255.671 100.081 255.425 100.233 255.236 100.437C255.051 100.637 254.959 100.91 254.959 101.256C254.959 101.729 255.134 102.087 255.484 102.329C255.838 102.568 256.286 102.687 256.829 102.687ZM267.024 94.839V95.9931H262.431V94.839H267.024ZM263.769 92.7154H265.131V101.164C265.131 101.548 265.187 101.837 265.299 102.029C265.414 102.218 265.56 102.345 265.737 102.41C265.918 102.472 266.108 102.502 266.308 102.502C266.458 102.502 266.582 102.495 266.678 102.479C266.774 102.46 266.851 102.445 266.909 102.433L267.186 103.656C267.093 103.691 266.964 103.726 266.799 103.76C266.634 103.799 266.424 103.818 266.17 103.818C265.785 103.818 265.408 103.735 265.039 103.57C264.673 103.405 264.37 103.153 264.127 102.814C263.889 102.475 263.769 102.048 263.769 101.533V92.7154ZM270.733 91.8845V92.9232C270.733 93.2386 270.675 93.5753 270.56 93.933C270.448 94.287 270.283 94.6313 270.064 94.966C269.848 95.2968 269.587 95.5854 269.279 95.8316L268.54 95.2314C268.783 94.8852 268.992 94.5255 269.169 94.1523C269.35 93.7753 269.44 93.3733 269.44 92.9463V91.8845H270.733ZM277.557 96.8241L276.333 97.1703C276.256 96.9664 276.143 96.7683 275.993 96.576C275.847 96.3798 275.647 96.2182 275.393 96.0912C275.139 95.9643 274.814 95.9008 274.418 95.9008C273.875 95.9008 273.423 96.0258 273.061 96.2759C272.704 96.5221 272.525 96.8356 272.525 97.2165C272.525 97.5551 272.648 97.8224 272.894 98.0186C273.14 98.2148 273.525 98.3783 274.048 98.5091L275.364 98.8323C276.156 99.0246 276.747 99.3189 277.136 99.7152C277.524 100.108 277.718 100.613 277.718 101.233C277.718 101.741 277.572 102.195 277.28 102.595C276.991 102.995 276.587 103.31 276.068 103.541C275.549 103.772 274.945 103.887 274.256 103.887C273.352 103.887 272.604 103.691 272.011 103.299C271.419 102.906 271.044 102.333 270.886 101.579L272.179 101.256C272.302 101.733 272.534 102.091 272.877 102.329C273.223 102.568 273.675 102.687 274.233 102.687C274.868 102.687 275.372 102.552 275.745 102.283C276.122 102.01 276.31 101.683 276.31 101.302C276.31 100.994 276.203 100.737 275.987 100.529C275.772 100.317 275.441 100.16 274.995 100.056L273.517 99.7094C272.706 99.5171 272.109 99.2189 271.728 98.815C271.351 98.4072 271.163 97.8974 271.163 97.2858C271.163 96.7856 271.303 96.3432 271.584 95.9585C271.869 95.5738 272.256 95.2718 272.744 95.0525C273.237 94.8333 273.794 94.7236 274.418 94.7236C275.295 94.7236 275.983 94.916 276.483 95.3007C276.987 95.6854 277.345 96.1932 277.557 96.8241ZM287.94 103.887C287.139 103.887 286.437 103.697 285.833 103.316C285.233 102.935 284.764 102.402 284.425 101.718C284.091 101.033 283.923 100.233 283.923 99.317C283.923 98.3937 284.091 97.5878 284.425 96.8991C284.764 96.2105 285.233 95.6758 285.833 95.2949C286.437 94.914 287.139 94.7236 287.94 94.7236C288.74 94.7236 289.44 94.914 290.04 95.2949C290.644 95.6758 291.113 96.2105 291.448 96.8991C291.787 97.5878 291.956 98.3937 291.956 99.317C291.956 100.233 291.787 101.033 291.448 101.718C291.113 102.402 290.644 102.935 290.04 103.316C289.44 103.697 288.74 103.887 287.94 103.887ZM287.94 102.664C288.547 102.664 289.047 102.508 289.44 102.197C289.832 101.885 290.123 101.475 290.311 100.967C290.5 100.46 290.594 99.9095 290.594 99.317C290.594 98.7246 290.5 98.1725 290.311 97.6608C290.123 97.1492 289.832 96.7356 289.44 96.4202C289.047 96.1047 288.547 95.947 287.94 95.947C287.332 95.947 286.832 96.1047 286.439 96.4202C286.047 96.7356 285.756 97.1492 285.568 97.6608C285.379 98.1725 285.285 98.7246 285.285 99.317C285.285 99.9095 285.379 100.46 285.568 100.967C285.756 101.475 286.047 101.885 286.439 102.197C286.832 102.508 287.332 102.664 287.94 102.664ZM295.397 98.3706V103.703H294.035V94.839H295.35V96.224H295.466C295.674 95.7739 295.989 95.4122 296.412 95.1391C296.835 94.8621 297.382 94.7236 298.051 94.7236C298.651 94.7236 299.176 94.8467 299.626 95.0929C300.077 95.3353 300.427 95.7046 300.677 96.2009C300.927 96.6933 301.052 97.3165 301.052 98.0706V103.703H299.69V98.1629C299.69 97.4666 299.509 96.9241 299.147 96.5356C298.786 96.1432 298.29 95.947 297.659 95.947C297.224 95.947 296.835 96.0412 296.493 96.2297C296.154 96.4182 295.887 96.6933 295.691 97.0549C295.495 97.4166 295.397 97.8551 295.397 98.3706ZM308.988 107.027C308.757 107.027 308.551 107.007 308.37 106.969C308.189 106.934 308.064 106.9 307.995 106.865L308.341 105.665C308.672 105.749 308.965 105.78 309.219 105.757C309.472 105.734 309.698 105.62 309.894 105.417C310.094 105.216 310.277 104.891 310.442 104.441L310.696 103.749L307.418 94.839H308.895L311.342 101.902H311.434L313.881 94.839H315.359L311.596 104.995C311.427 105.453 311.217 105.832 310.967 106.132C310.717 106.436 310.427 106.661 310.096 106.807C309.769 106.953 309.399 107.027 308.988 107.027ZM320.44 103.887C319.639 103.887 318.937 103.697 318.333 103.316C317.733 102.935 317.264 102.402 316.925 101.718C316.591 101.033 316.423 100.233 316.423 99.317C316.423 98.3937 316.591 97.5878 316.925 96.8991C317.264 96.2105 317.733 95.6758 318.333 95.2949C318.937 94.914 319.639 94.7236 320.44 94.7236C321.24 94.7236 321.94 94.914 322.54 95.2949C323.144 95.6758 323.613 96.2105 323.948 96.8991C324.287 97.5878 324.456 98.3937 324.456 99.317C324.456 100.233 324.287 101.033 323.948 101.718C323.613 102.402 323.144 102.935 322.54 103.316C321.94 103.697 321.24 103.887 320.44 103.887ZM320.44 102.664C321.047 102.664 321.547 102.508 321.94 102.197C322.332 101.885 322.623 101.475 322.811 100.967C323 100.46 323.094 99.9095 323.094 99.317C323.094 98.7246 323 98.1725 322.811 97.6608C322.623 97.1492 322.332 96.7356 321.94 96.4202C321.547 96.1047 321.047 95.947 320.44 95.947C319.832 95.947 319.332 96.1047 318.939 96.4202C318.547 96.7356 318.256 97.1492 318.068 97.6608C317.879 98.1725 317.785 98.7246 317.785 99.317C317.785 99.9095 317.879 100.46 318.068 100.967C318.256 101.475 318.547 101.885 318.939 102.197C319.332 102.508 319.832 102.664 320.44 102.664ZM332.121 100.079V94.839H333.483V103.703H332.121V102.202H332.028C331.821 102.652 331.497 103.035 331.059 103.351C330.62 103.662 330.066 103.818 329.397 103.818C328.843 103.818 328.351 103.697 327.92 103.455C327.489 103.208 327.15 102.839 326.904 102.347C326.658 101.85 326.535 101.225 326.535 100.471V94.839H327.897V100.379C327.897 101.025 328.077 101.541 328.439 101.925C328.804 102.31 329.27 102.502 329.835 102.502C330.174 102.502 330.518 102.416 330.868 102.243C331.222 102.07 331.519 101.804 331.757 101.446C331.999 101.089 332.121 100.633 332.121 100.079ZM335.977 103.703V94.839H337.293V96.1778H337.385C337.546 95.7392 337.839 95.3834 338.262 95.1102C338.685 94.8371 339.162 94.7005 339.693 94.7005C339.793 94.7005 339.918 94.7025 340.068 94.7063C340.218 94.7101 340.332 94.7159 340.409 94.7236V96.1086C340.362 96.097 340.257 96.0797 340.091 96.0566C339.93 96.0297 339.759 96.0162 339.578 96.0162C339.147 96.0162 338.762 96.1066 338.424 96.2874C338.089 96.4644 337.823 96.7106 337.627 97.0261C337.435 97.3377 337.339 97.6935 337.339 98.0936V103.703H335.977ZM346.593 103.703V94.839H347.909V96.224H348.024C348.209 95.7508 348.507 95.3834 348.919 95.1218C349.33 94.8563 349.825 94.7236 350.402 94.7236C350.987 94.7236 351.473 94.8563 351.862 95.1218C352.254 95.3834 352.56 95.7508 352.779 96.224H352.872C353.099 95.7662 353.439 95.4026 353.893 95.1333C354.347 94.8602 354.891 94.7236 355.526 94.7236C356.319 94.7236 356.967 94.9717 357.471 95.468C357.975 95.9604 358.227 96.7279 358.227 97.7705V103.703H356.865V97.7705C356.865 97.1165 356.686 96.6491 356.328 96.3682C355.971 96.0874 355.549 95.947 355.065 95.947C354.441 95.947 353.959 96.1355 353.616 96.5125C353.274 96.8857 353.103 97.3589 353.103 97.9321V103.703H351.718V97.632C351.718 97.128 351.554 96.7222 351.227 96.4144C350.9 96.1028 350.479 95.947 349.963 95.947C349.609 95.947 349.279 96.0412 348.971 96.2297C348.667 96.4182 348.421 96.6798 348.232 97.0145C348.047 97.3454 347.955 97.7282 347.955 98.1629V103.703H346.593ZM360.717 103.703V94.839H362.079V103.703H360.717ZM361.409 93.3618C361.144 93.3618 360.915 93.2713 360.723 93.0905C360.534 92.9097 360.44 92.6924 360.44 92.4385C360.44 92.1845 360.534 91.9672 360.723 91.7864C360.915 91.6056 361.144 91.5152 361.409 91.5152C361.675 91.5152 361.902 91.6056 362.09 91.7864C362.283 91.9672 362.379 92.1845 362.379 92.4385C362.379 92.6924 362.283 92.9097 362.09 93.0905C361.902 93.2713 361.675 93.3618 361.409 93.3618ZM365.935 98.3706V103.703H364.573V94.839H365.889V96.224H366.004C366.212 95.7739 366.527 95.4122 366.951 95.1391C367.374 94.8621 367.92 94.7236 368.589 94.7236C369.19 94.7236 369.715 94.8467 370.165 95.0929C370.615 95.3353 370.965 95.7046 371.215 96.2009C371.465 96.6933 371.59 97.3165 371.59 98.0706V103.703H370.228V98.1629C370.228 97.4666 370.047 96.9241 369.686 96.5356C369.324 96.1432 368.828 95.947 368.197 95.947C367.762 95.947 367.374 96.0412 367.031 96.2297C366.693 96.4182 366.425 96.6933 366.229 97.0549C366.033 97.4166 365.935 97.8551 365.935 98.3706ZM377.426 103.887C376.687 103.887 376.035 103.701 375.469 103.328C374.904 102.951 374.461 102.42 374.142 101.735C373.823 101.046 373.663 100.233 373.663 99.2939C373.663 98.3629 373.823 97.5551 374.142 96.8703C374.461 96.1855 374.906 95.6565 375.475 95.2834C376.044 94.9102 376.702 94.7236 377.449 94.7236C378.026 94.7236 378.482 94.8198 378.816 95.0121C379.155 95.2006 379.413 95.4161 379.59 95.6584C379.77 95.897 379.911 96.0932 380.011 96.247H380.126V91.8845H381.488V103.703H380.172V102.341H380.011C379.911 102.502 379.768 102.706 379.584 102.952C379.399 103.195 379.136 103.412 378.793 103.605C378.451 103.793 377.995 103.887 377.426 103.887ZM377.61 102.664C378.157 102.664 378.618 102.522 378.995 102.237C379.372 101.948 379.659 101.55 379.855 101.042C380.051 100.531 380.149 99.9402 380.149 99.2708C380.149 98.6091 380.053 98.0302 379.861 97.5339C379.668 97.0338 379.384 96.6452 379.007 96.3682C378.63 96.0874 378.164 95.947 377.61 95.947C377.033 95.947 376.552 96.0951 376.168 96.3913C375.787 96.6837 375.5 97.0819 375.308 97.5858C375.119 98.0859 375.025 98.6476 375.025 99.2708C375.025 99.9018 375.121 100.475 375.314 100.99C375.51 101.502 375.798 101.91 376.179 102.214C376.564 102.514 377.041 102.664 377.61 102.664ZM385.164 103.795C384.879 103.795 384.635 103.693 384.431 103.489C384.227 103.285 384.125 103.041 384.125 102.756C384.125 102.472 384.227 102.227 384.431 102.023C384.635 101.82 384.879 101.718 385.164 101.718C385.449 101.718 385.693 101.82 385.897 102.023C386.101 102.227 386.203 102.472 386.203 102.756C386.203 102.945 386.155 103.118 386.058 103.276C385.966 103.433 385.841 103.56 385.683 103.656C385.529 103.749 385.356 103.795 385.164 103.795Z" fill="black"/>
</svg>
